# xmcd CD database file
#
# Track frame offsets:
#	150
#	4275
#	17400
#	24375
#	31275
#	38325
#	56025
#	71100
#	85650
#	93525
#	99600
#	109200
#	118650
#	133050
#	140625
#	153150
#	173250
#
# Disc length: 2574 seconds
#
# Revision: 0
# Processed by: cddbd v1.5.2PL0 Copyright (c) Steve Scherf et al.
# Submitted via: CDex 1.51
#
DISCID=d30a0c11
DTITLE=Ibrahim Maalouf - Dans les forêts de Sibérie (bande originale du film)
DYEAR=2016
DGENRE=Jazz
TTITLE0=Ibrahim Maalouf - Sibérie
TTITLE1=Ibrahim Maalouf - Baïkal
TTITLE2=Ibrahim Maalouf - Première glace
TTITLE3=Ibrahim Maalouf - En cabane
TTITLE4=Ibrahim Maalouf - Une présence
TTITLE5=Ibrahim Maalouf - Tempête
TTITLE6=Ibrahim Maalouf - Dans les forêts
TTITLE7=Ibrahim Maalouf - Vers le lac
TTITLE8=Ibrahim Maalouf - Tourbillon
TTITLE9=Ibrahim Maalouf - L'aube
TTITLE10=Ibrahim Maalouf - Lévitation
TTITLE11=Ibrahim Maalouf - L'anniversaire
TTITLE12=Ibrahim Maalouf - Les autres
TTITLE13=Ibrahim Maalouf - Aleksei
TTITLE14=Ibrahim Maalouf - Libre
TTITLE15=Ibrahim Maalouf - Dernier voyage
TTITLE16=Ibrahim Maalouf - Red and Black Light (version film)
EXTD=YEAR: 2016
EXTT0=
EXTT1=
EXTT2=
EXTT3=
EXTT4=
EXTT5=
EXTT6=
EXTT7=
EXTT8=
EXTT9=
EXTT10=
EXTT11=
EXTT12=
EXTT13=
EXTT14=
EXTT15=
EXTT16=
PLAYORDER=
